<?xml version="1.0" standalone="no"?>
<!DOCTYPE svg PUBLIC "-//W3C//DTD SVG 20010904//EN"
 "http://www.w3.org/TR/2001/REC-SVG-20010904/DTD/svg10.dtd">
<svg version="1.0" xmlns="http://www.w3.org/2000/svg"
 width="744.000000pt" height="744.000000pt" viewBox="0 0 744.000000 744.000000"
 preserveAspectRatio="xMidYMid meet">
<metadata>
Created by potrace 1.14, written by Peter Selinger 2001-2017
</metadata>
<g transform="translate(0.000000,744.000000) scale(0.100000,-0.100000)"
fill="#000000" stroke="none">
<path d="M5776 6174 c-21 -90 -62 -214 -71 -214 -5 0 -28 11 -50 25 -48 29
-58 31 -51 8 3 -10 8 -45 12 -78 3 -33 8 -63 10 -67 7 -11 -8 -15 -81 -22 -38
-4 -81 -9 -95 -11 -14 -2 -52 -6 -85 -10 -33 -4 -61 -7 -62 -8 -1 -2 50 -29
113 -61 l115 -59 -36 -37 -36 -37 76 -12 77 -13 -6 -53 c-3 -29 -9 -72 -12
-96 l-7 -43 49 29 c27 15 59 35 71 42 21 14 22 12 67 -124 24 -76 47 -131 50
-123 3 8 19 70 37 136 l32 122 61 -28 c33 -16 62 -27 64 -25 2 1 -4 33 -13 69
-8 37 -15 71 -15 75 0 5 30 12 68 17 37 4 70 8 75 10 4 1 12 2 19 3 6 0 -10
20 -35 43 -26 23 -47 45 -47 49 0 4 55 30 123 59 67 29 126 56 131 61 6 5 -6
9 -30 10 -21 0 -47 2 -57 4 -10 2 -53 6 -96 10 -42 3 -86 8 -97 10 -10 2 -24
4 -31 4 -7 1 -10 7 -8 14 4 12 9 37 22 111 3 22 2 37 -3 34 -58 -30 -146 -70
-149 -66 -3 2 -21 58 -41 124 -44 145 -49 156 -58 118z"/>
<path d="M4569 5343 c-148 -29 -293 -138 -362 -271 -30 -58 -70 -185 -66 -209
7 -41 1 -42 -83 -12 -84 31 -179 56 -258 67 -59 9 -313 9 -365 0 -92 -16 -114
-21 -190 -44 -44 -14 -125 -46 -180 -73 l-100 -49 -87 47 c-55 28 -87 51 -85
60 1 8 -18 25 -44 39 l-45 25 -42 -28 c-42 -27 -42 -28 -36 -74 7 -54 11 -61
29 -61 13 0 18 -16 45 -158 l10 -53 -53 -62 c-131 -154 -217 -321 -267 -517
-27 -104 -34 -166 -34 -295 -1 -232 38 -396 141 -598 177 -345 546 -612 913
-662 25 -3 59 -9 75 -11 59 -11 261 -5 340 10 116 22 122 23 194 47 361 120
648 397 786 760 19 50 37 100 39 112 3 12 12 58 21 101 8 44 17 81 18 83 2 1
11 -21 20 -51 22 -68 85 -166 130 -200 76 -58 185 -31 250 64 23 33 21 77 -4
136 -37 85 -81 184 -128 288 -34 75 -38 96 -18 96 7 0 29 -46 51 -107 90 -253
158 -350 252 -361 81 -9 194 79 194 151 0 26 -40 123 -132 327 -17 36 -38 85
-48 110 -19 48 -59 136 -117 258 -41 88 -50 40 70 407 45 138 82 252 82 255 1
3 16 50 33 106 43 135 41 174 -7 225 -80 83 -179 30 -238 -127 -16 -43 -38
-101 -48 -128 l-18 -50 -14 55 c-24 94 -99 207 -178 266 -134 103 -286 139
-446 106z"/>
<path d="M2246 2728 c-16 -54 -36 -73 -51 -48 -14 23 -22 7 -17 -35 4 -44 4
-45 -24 -46 -42 -1 -118 -10 -122 -14 -2 -2 19 -15 47 -29 54 -28 63 -42 34
-53 -14 -6 -8 -10 22 -19 39 -11 40 -12 37 -52 -4 -45 2 -50 32 -27 11 8 23
15 26 15 4 0 15 -27 25 -60 10 -32 21 -57 26 -55 4 3 13 30 20 60 7 30 14 55
16 55 2 0 17 -7 34 -15 l30 -16 -7 28 c-3 15 -7 34 -10 41 -2 6 1 13 6 13 6 1
15 3 20 4 6 1 20 3 31 4 21 1 21 2 4 27 -9 14 -15 27 -13 28 2 2 29 13 60 26
32 13 57 25 55 26 -3 4 -77 13 -119 16 -37 2 -37 2 -32 40 6 43 5 44 -37 23
-33 -18 -32 -18 -62 75 l-14 45 -17 -57z"/>
<path d="M1601 2109 c-92 -42 -120 -138 -68 -232 38 -69 71 -81 224 -82 140
-1 163 -8 143 -45 -7 -14 -35 -16 -198 -15 l-190 1 -4 -59 c-2 -33 -1 -62 2
-67 3 -4 100 -7 215 -6 l210 1 37 28 c87 67 85 205 -4 269 -30 21 -47 24 -172
28 -117 4 -141 8 -150 22 -22 36 4 41 199 40 l186 -2 -2 70 -2 69 -195 -2
c-155 -2 -203 -5 -231 -18z m397 -48 l1 -37 -181 -1 c-164 0 -182 -2 -195 -18
-19 -27 -16 -62 7 -85 18 -18 33 -20 146 -20 153 0 183 -11 215 -76 34 -72 6
-150 -65 -179 -34 -14 -386 -16 -386 -2 0 4 0 19 0 35 l0 27 181 0 c99 0 184
2 188 5 32 21 32 85 -1 107 -7 4 -72 8 -145 8 -118 0 -135 2 -160 21 -59 44
-83 116 -56 169 38 72 64 80 275 82 l176 2 0 -38z"/>
<path d="M2082 2062 l3 -67 93 0 c76 0 92 -2 92 -15 3 -86 1 -242 -2 -246 -3
-2 -45 -6 -94 -7 l-89 -2 -3 -61 -3 -62 263 2 263 1 0 63 c1 71 15 64 -121 64
l-71 0 1 131 1 131 87 0 c47 1 90 5 94 9 5 4 9 34 10 67 l2 58 -265 0 -264 1
3 -67z m492 6 c-1 -16 -2 -31 -3 -35 0 -5 -38 -8 -84 -7 -45 0 -87 -1 -93 -3
-8 -3 -11 -53 -10 -161 l1 -157 85 -2 c47 -1 90 -2 95 -2 6 -1 10 -16 10 -35
l1 -34 -234 0 -233 -1 3 32 3 32 93 0 c54 0 92 4 93 10 0 17 1 268 0 297 l-1
26 -82 -2 c-46 -2 -89 -1 -95 2 -7 2 -13 19 -13 37 l0 33 233 -1 232 -2 -1
-27z"/>
<path d="M2650 1864 l0 -264 64 2 64 2 0 175 c1 97 1 184 1 194 1 12 9 17 34
17 l32 0 0 -192 0 -193 68 -1 67 -1 0 183 c0 107 4 184 9 184 5 0 18 -11 29
-24 19 -26 23 -55 25 -241 l2 -100 62 -2 c39 -1 63 3 66 10 2 7 3 82 2 167 -1
135 -4 160 -22 195 -31 59 -78 104 -137 130 -48 21 -67 23 -209 23 l-157 0 0
-264z m366 209 c47 -25 90 -72 113 -124 13 -28 16 -68 16 -175 l0 -139 -35 0
-35 0 -2 70 c-1 39 -2 105 -2 147 -1 71 -3 80 -31 112 -17 19 -44 39 -60 45
l-30 10 0 -193 0 -193 -38 -1 -37 -2 1 188 c0 103 -3 192 -7 197 -7 10 -105
12 -115 2 -3 -2 -6 -91 -6 -196 l-1 -191 -33 0 -34 0 0 234 0 235 148 -2 c128
-3 152 -6 188 -24z"/>
<path d="M3226 2123 c-3 -4 -6 -122 -6 -263 l0 -257 65 -1 65 -1 1 37 c1 20 1
54 0 74 l-1 37 135 -1 c142 0 151 2 202 51 49 47 71 128 52 196 -11 36 -74
107 -111 122 -27 12 -391 17 -402 6z m372 -30 c34 -6 83 -48 106 -93 17 -32
13 -97 -7 -137 -22 -42 -73 -83 -105 -84 -15 0 -82 0 -149 0 l-121 0 1 -62 c1
-74 -5 -87 -44 -87 l-29 0 0 234 0 233 158 1 c86 0 172 -2 190 -5z"/>
<path d="M3320 1938 l0 -88 134 0 c118 0 136 2 158 20 30 23 40 62 26 102 -16
45 -40 52 -185 53 l-133 1 0 -88z m276 40 c22 -22 21 -68 -2 -85 -12 -9 -53
-13 -131 -13 l-113 0 0 54 c0 30 5 56 11 58 5 2 57 3 115 3 82 -1 108 -5 120
-17z"/>
<path d="M3897 2117 c-3 -10 -2 -489 2 -509 0 -4 95 -6 210 -5 195 2 211 3
238 23 68 50 93 140 59 206 -13 24 -13 32 1 59 20 40 13 126 -12 161 -11 14
-36 37 -57 52 l-37 27 -200 -1 c-143 -1 -201 -5 -204 -13z m447 -62 c42 -40
46 -49 46 -91 0 -29 -7 -56 -19 -73 -20 -27 -20 -28 0 -60 24 -40 24 -97 -1
-138 -33 -55 -55 -60 -257 -61 -101 -1 -184 2 -184 6 -4 21 -4 439 -1 450 3 9
50 12 187 12 l183 0 46 -45z"/>
<path d="M4001 2015 c-4 -5 -7 -32 -7 -60 l1 -50 144 -1 c127 -1 147 2 163 18
22 22 23 57 4 83 -13 18 -28 20 -156 20 -87 1 -144 -3 -149 -10z m272 -24 c20
-1 23 -34 5 -49 -15 -11 -248 -16 -249 -5 0 5 -2 18 -5 30 -2 14 2 23 13 25
15 3 190 2 236 -1z"/>
<path d="M4002 1811 c-5 -12 -6 -45 -3 -96 1 -13 24 -15 141 -15 127 0 142 2
160 20 26 26 25 62 -1 86 -18 17 -38 19 -156 19 -109 1 -136 -2 -141 -14z
m279 -28 c6 -6 8 -20 4 -32 -6 -20 -13 -21 -131 -21 l-124 0 0 33 0 33 120 -1
c72 -1 124 -5 131 -12z"/>
<path d="M4638 2115 c-31 -10 -64 -32 -93 -62 -76 -77 -79 -86 -82 -280 l-2
-173 27 -1 c15 -1 45 -1 67 -2 l40 -1 0 75 0 74 135 0 134 0 -2 -72 c-3 -81
-2 -82 83 -73 l50 5 -2 162 c-3 179 -8 200 -74 276 -62 72 -183 103 -281 72z
m189 -39 c45 -24 93 -75 115 -124 16 -36 20 -69 22 -183 l2 -139 -37 0 c-36 0
-37 1 -37 38 0 20 -1 53 -1 72 l-1 35 -162 0 -163 0 1 -73 0 -72 -38 0 -38 0
0 128 c0 169 13 215 80 275 28 25 67 49 87 55 51 13 131 7 170 -12z"/>
<path d="M4677 2019 c-61 -16 -102 -67 -109 -134 l-3 -30 163 -3 162 -2 0 26
c0 92 -115 169 -213 143z m111 -43 c35 -18 65 -52 69 -76 3 -19 -4 -20 -127
-20 l-130 0 0 24 c0 16 13 35 37 55 42 35 103 42 151 17z"/>
<path d="M5035 1870 c0 -142 3 -262 8 -266 4 -4 91 -8 195 -9 159 -1 192 1
222 16 42 21 85 65 95 98 12 39 7 101 -9 126 -14 21 -14 26 1 56 40 80 5 177
-79 217 -39 19 -61 21 -238 21 l-195 -1 0 -258z m417 214 c33 -17 76 -72 81
-105 5 -29 -10 -77 -31 -101 -13 -15 -12 -20 7 -44 28 -36 28 -106 0 -145 -43
-60 -79 -66 -369 -61 l-75 2 0 228 c0 132 4 230 9 234 6 4 87 6 180 6 124 0
178 -4 198 -14z"/>
<path d="M5152 2019 c-13 -5 -17 -18 -16 -60 l1 -54 143 -3 c122 -2 145 0 161
14 23 21 25 77 4 94 -17 14 -261 21 -293 9z m276 -56 l-3 -28 -126 -3 -127 -3
-4 25 c-3 14 -3 28 0 31 3 3 63 5 134 5 l129 0 -3 -27z"/>
<path d="M5141 1822 c-6 -2 -11 -28 -11 -63 l0 -59 145 0 c137 0 145 1 165 23
22 23 22 69 0 91 -9 9 -274 16 -299 8z m281 -40 c9 -9 10 -17 2 -30 -10 -15
-29 -17 -135 -17 l-124 0 -3 30 -3 30 125 0 c87 0 129 -4 138 -13z"/>
<path d="M5648 2013 l57 -113 43 0 42 0 0 -150 0 -150 74 0 74 0 0 133 c0 72
1 140 1 150 1 13 10 17 46 17 l45 0 55 110 c30 60 55 112 55 115 0 10 -131 2
-138 -9 -4 -6 -27 -49 -52 -96 -43 -81 -47 -85 -82 -88 -39 -3 -41 -1 -125
158 -18 35 -19 35 -85 35 l-66 1 56 -113z m61 71 c10 -10 81 -144 81 -151 0
-2 -15 -3 -32 -1 -29 3 -37 11 -70 73 -21 39 -38 75 -38 82 0 13 47 10 59 -3z
m381 9 c0 -2 -18 -39 -40 -83 -39 -77 -42 -80 -75 -80 -39 0 -39 -2 9 90 38
74 43 79 77 78 16 -1 29 -3 29 -5z m-182 -328 l2 -135 -45 0 -45 0 0 135 0
135 43 0 44 0 1 -135z"/>
</g>
</svg>
